<svg width="561" height="359" viewBox="0 0 561 359" fill="none" xmlns="http://www.w3.org/2000/svg">
<mask id="mask0" mask-type="alpha" maskUnits="userSpaceOnUse" x="10" y="58" width="240" height="240">
<rect x="10" y="58" width="240" height="240" fill="url(#paint0_radial)"/>
</mask>
<g mask="url(#mask0)">
<g opacity="0.3">
<circle cx="12" cy="60" r="2.33333" fill="#1D2145" stroke="#1D2145" stroke-width="0.666667"/>
<circle opacity="0.8" cx="40.4443" cy="60" r="2.33333" fill="#1D2145" stroke="#1D2145" stroke-width="0.666667"/>
<circle cx="68.8889" cy="60" r="2.33333" fill="#1D2145" stroke="#1D2145" stroke-width="0.666667"/>
<circle opacity="0.4" cx="97.3333" cy="60" r="2.33333" fill="#1D2145" stroke="#1D2145" stroke-width="0.666667"/>
<circle cx="125.778" cy="60" r="2.33333" fill="#1D2145" stroke="#1D2145" stroke-width="0.666667"/>
<circle cx="154.222" cy="60" r="2.33333" fill="#1D2145" stroke="#1D2145" stroke-width="0.666667"/>
<circle opacity="0.6" cx="182.667" cy="60" r="2.33333" fill="#1D2145" stroke="#1D2145" stroke-width="0.666667"/>
<circle opacity="0.4" cx="211.111" cy="60" r="2.33333" fill="#1D2145" stroke="#1D2145" stroke-width="0.666667"/>
<circle opacity="0.6" cx="239.556" cy="60" r="2.33333" fill="#1D2145" stroke="#1D2145" stroke-width="0.666667"/>
<circle cx="12" cy="88.4445" r="2.33333" fill="#1D2145" stroke="#1D2145" stroke-width="0.666667"/>
<circle opacity="0.6" cx="40.4443" cy="88.4445" r="2.33333" fill="#1D2145" stroke="#1D2145" stroke-width="0.666667"/>
<circle cx="68.8889" cy="88.4445" r="2.33333" fill="#1D2145" stroke="#1D2145" stroke-width="0.666667"/>
<circle cx="97.3333" cy="88.4445" r="2.33333" fill="#1D2145" stroke="#1D2145" stroke-width="0.666667"/>
<circle opacity="0.6" cx="125.778" cy="88.4445" r="2.33333" fill="#1D2145" stroke="#1D2145" stroke-width="0.666667"/>
<circle opacity="0.4" cx="154.222" cy="88.4445" r="2.33333" fill="#1D2145" stroke="#1D2145" stroke-width="0.666667"/>
<circle cx="182.667" cy="88.4445" r="2.33333" fill="#1D2145" stroke="#1D2145" stroke-width="0.666667"/>
<circle opacity="0.4" cx="211.111" cy="88.4445" r="2.33333" fill="#1D2145" stroke="#1D2145" stroke-width="0.666667"/>
<circle cx="239.556" cy="88.4445" r="2.33333" fill="#1D2145" stroke="#1D2145" stroke-width="0.666667"/>
<circle cx="12" cy="116.889" r="2.33333" fill="#1D2145" stroke="#1D2145" stroke-width="0.666667"/>
<circle cx="40.4443" cy="116.889" r="2.33333" fill="#1D2145" stroke="#1D2145" stroke-width="0.666667"/>
<circle cx="68.8889" cy="116.889" r="2.33333" fill="#1D2145" stroke="#1D2145" stroke-width="0.666667"/>
<circle cx="97.3333" cy="116.889" r="2.33333" fill="#1D2145" stroke="#1D2145" stroke-width="0.666667"/>
<circle opacity="0.6" cx="125.778" cy="116.889" r="2.33333" fill="#1D2145" stroke="#1D2145" stroke-width="0.666667"/>
<circle cx="154.222" cy="116.889" r="2.33333" fill="#1D2145" stroke="#1D2145" stroke-width="0.666667"/>
<circle opacity="0.8" cx="182.667" cy="116.889" r="2.33333" fill="#1D2145" stroke="#1D2145" stroke-width="0.666667"/>
<circle cx="211.111" cy="116.889" r="2.33333" fill="#1D2145" stroke="#1D2145" stroke-width="0.666667"/>
<circle opacity="0.4" cx="239.556" cy="116.889" r="2.33333" fill="#1D2145" stroke="#1D2145" stroke-width="0.666667"/>
<circle opacity="0.6" cx="12" cy="145.333" r="2.33333" fill="#1D2145" stroke="#1D2145" stroke-width="0.666667"/>
<circle opacity="0.8" cx="40.4443" cy="145.333" r="2.33333" fill="#1D2145" stroke="#1D2145" stroke-width="0.666667"/>
<circle opacity="0.6" cx="68.8889" cy="145.333" r="2.33333" fill="#1D2145" stroke="#1D2145" stroke-width="0.666667"/>
<circle cx="97.3333" cy="145.333" r="2.33333" fill="#1D2145" stroke="#1D2145" stroke-width="0.666667"/>
<circle cx="125.778" cy="145.333" r="2.33333" fill="#1D2145" stroke="#1D2145" stroke-width="0.666667"/>
<circle cx="154.222" cy="145.333" r="2.33333" fill="#1D2145" stroke="#1D2145" stroke-width="0.666667"/>
<circle opacity="0.4" cx="182.667" cy="145.333" r="2.33333" fill="#1D2145" stroke="#1D2145" stroke-width="0.666667"/>
<circle opacity="0.4" cx="211.111" cy="145.333" r="2.33333" fill="#1D2145" stroke="#1D2145" stroke-width="0.666667"/>
<circle opacity="0.6" cx="239.556" cy="145.333" r="2.33333" fill="#1D2145" stroke="#1D2145" stroke-width="0.666667"/>
<circle cx="12" cy="173.778" r="2.33333" fill="#1D2145" stroke="#1D2145" stroke-width="0.666667"/>
<circle cx="40.4443" cy="173.778" r="2.33333" fill="#1D2145" stroke="#1D2145" stroke-width="0.666667"/>
<circle cx="68.8889" cy="173.778" r="2.33333" fill="#1D2145" stroke="#1D2145" stroke-width="0.666667"/>
<circle opacity="0.6" cx="97.3333" cy="173.778" r="2.33333" fill="#1D2145" stroke="#1D2145" stroke-width="0.666667"/>
<circle opacity="0.6" cx="125.778" cy="173.778" r="2.33333" fill="#1D2145" stroke="#1D2145" stroke-width="0.666667"/>
<circle opacity="0.4" cx="154.222" cy="173.778" r="2.33333" fill="#1D2145" stroke="#1D2145" stroke-width="0.666667"/>
<circle opacity="0.8" cx="182.667" cy="173.778" r="2.33333" fill="#1D2145" stroke="#1D2145" stroke-width="0.666667"/>
<circle cx="211.111" cy="173.778" r="2.33333" fill="#1D2145" stroke="#1D2145" stroke-width="0.666667"/>
<circle opacity="0.4" cx="239.556" cy="173.778" r="2.33333" fill="#1D2145" stroke="#1D2145" stroke-width="0.666667"/>
<circle opacity="0.6" cx="12" cy="202.222" r="2.33333" fill="#1D2145" stroke="#1D2145" stroke-width="0.666667"/>
<circle opacity="0.6" cx="40.4443" cy="202.222" r="2.33333" fill="#1D2145" stroke="#1D2145" stroke-width="0.666667"/>
<circle opacity="0.6" cx="68.8889" cy="202.222" r="2.33333" fill="#1D2145" stroke="#1D2145" stroke-width="0.666667"/>
<circle opacity="0.6" cx="97.3333" cy="202.222" r="2.33333" fill="#1D2145" stroke="#1D2145" stroke-width="0.666667"/>
<circle cx="125.778" cy="202.222" r="2.33333" fill="#1D2145" stroke="#1D2145" stroke-width="0.666667"/>
<circle opacity="0.6" cx="154.222" cy="202.222" r="2.33333" fill="#1D2145" stroke="#1D2145" stroke-width="0.666667"/>
<circle cx="182.667" cy="202.222" r="2.33333" fill="#1D2145" stroke="#1D2145" stroke-width="0.666667"/>
<circle cx="211.111" cy="202.222" r="2.33333" fill="#1D2145" stroke="#1D2145" stroke-width="0.666667"/>
<circle opacity="0.4" cx="239.556" cy="202.222" r="2.33333" fill="#1D2145" stroke="#1D2145" stroke-width="0.666667"/>
<circle opacity="0.6" cx="12" cy="230.667" r="2.33333" fill="#1D2145" stroke="#1D2145" stroke-width="0.666667"/>
<circle cx="40.4443" cy="230.667" r="2.33333" fill="#1D2145" stroke="#1D2145" stroke-width="0.666667"/>
<circle opacity="0.8" cx="68.8889" cy="230.667" r="2.33333" fill="#1D2145" stroke="#1D2145" stroke-width="0.666667"/>
<circle opacity="0.8" cx="97.3333" cy="230.667" r="2.33333" fill="#1D2145" stroke="#1D2145" stroke-width="0.666667"/>
<circle opacity="0.4" cx="125.778" cy="230.667" r="2.33333" fill="#1D2145" stroke="#1D2145" stroke-width="0.666667"/>
<circle cx="154.222" cy="230.667" r="2.33333" fill="#1D2145" stroke="#1D2145" stroke-width="0.666667"/>
<circle cx="182.667" cy="230.667" r="2.33333" fill="#1D2145" stroke="#1D2145" stroke-width="0.666667"/>
<circle opacity="0.8" cx="211.111" cy="230.667" r="2.33333" fill="#1D2145" stroke="#1D2145" stroke-width="0.666667"/>
<circle cx="239.556" cy="230.667" r="2.33333" fill="#1D2145" stroke="#1D2145" stroke-width="0.666667"/>
<circle opacity="0.6" cx="12" cy="259.111" r="2.33333" fill="#1D2145" stroke="#1D2145" stroke-width="0.666667"/>
<circle opacity="0.8" cx="40.4443" cy="259.111" r="2.33333" fill="#1D2145" stroke="#1D2145" stroke-width="0.666667"/>
<circle opacity="0.8" cx="68.8889" cy="259.111" r="2.33333" fill="#1D2145" stroke="#1D2145" stroke-width="0.666667"/>
<circle cx="97.3333" cy="259.111" r="2.33333" fill="#1D2145" stroke="#1D2145" stroke-width="0.666667"/>
<circle cx="125.778" cy="259.111" r="2.33333" fill="#1D2145" stroke="#1D2145" stroke-width="0.666667"/>
<circle opacity="0.8" cx="154.222" cy="259.111" r="2.33333" fill="#1D2145" stroke="#1D2145" stroke-width="0.666667"/>
<circle opacity="0.4" cx="182.667" cy="259.111" r="2.33333" fill="#1D2145" stroke="#1D2145" stroke-width="0.666667"/>
<circle opacity="0.4" cx="211.111" cy="259.111" r="2.33333" fill="#1D2145" stroke="#1D2145" stroke-width="0.666667"/>
<circle cx="239.556" cy="259.111" r="2.33333" fill="#1D2145" stroke="#1D2145" stroke-width="0.666667"/>
<circle cx="12" cy="287.556" r="2.33333" fill="#1D2145" stroke="#1D2145" stroke-width="0.666667"/>
<circle cx="40.4443" cy="287.556" r="2.33333" fill="#1D2145" stroke="#1D2145" stroke-width="0.666667"/>
<circle cx="68.8889" cy="287.556" r="2.33333" fill="#1D2145" stroke="#1D2145" stroke-width="0.666667"/>
<circle opacity="0.4" cx="97.3333" cy="287.556" r="2.33333" fill="#1D2145" stroke="#1D2145" stroke-width="0.666667"/>
<circle cx="125.778" cy="287.556" r="2.33333" fill="#1D2145" stroke="#1D2145" stroke-width="0.666667"/>
<circle opacity="0.4" cx="154.222" cy="287.556" r="2.33333" fill="#1D2145" stroke="#1D2145" stroke-width="0.666667"/>
<circle cx="182.667" cy="287.556" r="2.33333" fill="#1D2145" stroke="#1D2145" stroke-width="0.666667"/>
<circle cx="211.111" cy="287.556" r="2.33333" fill="#1D2145" stroke="#1D2145" stroke-width="0.666667"/>
<circle cx="239.556" cy="287.556" r="2.33333" fill="#1D2145" stroke="#1D2145" stroke-width="0.666667"/>
</g>
</g>
<g filter="url(#filter0_dd)">
<rect x="121" y="49" width="320" height="240" rx="20" fill="white"/>
</g>
<path d="M381.196 206.745C381.727 202.571 382 198.318 382 194C382 179.753 379.021 166.202 373.651 153.936" stroke="#55D38F" stroke-width="10" stroke-linecap="round" stroke-linejoin="round"/>
<path d="M366.821 141.008C360.548 130.989 352.549 122.16 343.241 114.94" stroke="#ECA336" stroke-width="10" stroke-linecap="round" stroke-linejoin="round"/>
<path d="M330.666 106.62C320.037 100.688 308.215 96.639 295.65 94.924" stroke="#F9CF4A" stroke-width="10" stroke-linecap="round" stroke-linejoin="round"/>
<path d="M280.51 94.0109C225.969 94.8072 182 139.269 182 194C182 198.506 182.298 202.942 182.875 207.289" stroke="#E76262" stroke-width="10" stroke-linecap="round" stroke-linejoin="round"/>
<circle cx="360" cy="131" r="7.5" fill="white" stroke="#EBA336" stroke-width="5"/>
<path d="M244.502 178V177.52C246.966 168.432 251.558 159.408 258.278 150.448V150.256H241.238V144.4H264.902V150.496C258.214 159.68 253.702 168.848 251.366 178H244.502ZM268.263 178V172.768L279.351 161.44C281.175 159.616 282.423 158.176 283.095 157.12C283.799 156.064 284.151 154.928 284.151 153.712C284.151 152.464 283.735 151.456 282.903 150.688C282.103 149.92 280.983 149.536 279.543 149.536C278.007 149.536 276.775 149.984 275.847 150.88C274.919 151.744 274.455 153.056 274.455 154.816H268.167C268.167 151.392 269.191 148.704 271.239 146.752C273.287 144.8 276.055 143.824 279.543 143.824C282.871 143.824 285.559 144.736 287.607 146.56C289.687 148.352 290.727 150.672 290.727 153.52C290.727 155.248 290.279 156.896 289.383 158.464C288.487 160.032 286.999 161.872 284.919 163.984L276.903 172V172.192H291.255V178H268.263ZM307.399 178.432C304.135 178.432 301.495 177.552 299.479 175.792C297.463 174 296.295 171.76 295.975 169.072H302.215C302.439 170.128 302.999 170.992 303.895 171.664C304.791 172.336 305.959 172.672 307.399 172.672C309.639 172.672 311.367 171.824 312.583 170.128C313.799 168.4 314.407 165.952 314.407 162.784H314.215C312.487 165.056 310.023 166.192 306.823 166.192C303.431 166.192 300.727 165.12 298.711 162.976C296.727 160.8 295.735 158.256 295.735 155.344C295.735 152.048 296.823 149.312 298.999 147.136C301.207 144.928 304.183 143.824 307.927 143.824C312.151 143.824 315.303 145.312 317.383 148.288C319.495 151.264 320.551 155.344 320.551 160.528C320.551 163.088 320.279 165.44 319.735 167.584C319.223 169.728 318.439 171.616 317.383 173.248C316.327 174.88 314.951 176.16 313.255 177.088C311.559 177.984 309.607 178.432 307.399 178.432ZM307.927 160.864C309.687 160.864 311.079 160.352 312.103 159.328C313.159 158.272 313.687 156.912 313.687 155.248C313.687 153.52 313.159 152.144 312.103 151.12C311.079 150.064 309.687 149.536 307.927 149.536C306.231 149.536 304.823 150.064 303.703 151.12C302.615 152.176 302.071 153.552 302.071 155.248C302.071 156.912 302.583 158.272 303.607 159.328C304.663 160.352 306.103 160.864 307.927 160.864Z" fill="#1D2145"/>
<path d="M214.424 208V204.568L211.352 199.72V199.6H212.972L215.12 203.176H215.168L217.28 199.6H218.888V199.72L215.84 204.556V208H214.424ZM221.351 208.108C220.399 208.108 219.671 207.812 219.167 207.22C218.671 206.628 218.423 205.856 218.423 204.904C218.423 203.96 218.675 203.192 219.179 202.6C219.691 202 220.415 201.7 221.351 201.7C222.287 201.7 223.007 202 223.511 202.6C224.023 203.192 224.279 203.96 224.279 204.904C224.279 205.856 224.027 206.628 223.523 207.22C223.019 207.812 222.295 208.108 221.351 208.108ZM221.351 206.896C222.375 206.896 222.887 206.232 222.887 204.904C222.887 204.272 222.759 203.784 222.503 203.44C222.247 203.088 221.863 202.912 221.351 202.912C220.839 202.912 220.455 203.088 220.199 203.44C219.943 203.784 219.815 204.272 219.815 204.904C219.815 205.536 219.943 206.028 220.199 206.38C220.463 206.724 220.847 206.896 221.351 206.896ZM229.516 201.808H230.884V205.648C230.884 206.368 230.648 206.956 230.176 207.412C229.712 207.868 229.06 208.096 228.22 208.096C227.38 208.096 226.724 207.868 226.252 207.412C225.788 206.948 225.556 206.36 225.556 205.648V201.808H226.924V205.432C226.924 206.368 227.356 206.836 228.22 206.836C229.084 206.836 229.516 206.368 229.516 205.432V201.808ZM232.565 208V201.808H233.717L233.837 202.792H233.885C234.013 202.464 234.217 202.204 234.497 202.012C234.777 201.82 235.109 201.724 235.493 201.724H235.997V202.996H235.469C234.949 202.996 234.553 203.168 234.281 203.512C234.017 203.856 233.885 204.344 233.885 204.976V208H232.565ZM243.277 208.108C242.341 208.108 241.613 207.82 241.093 207.244C240.581 206.66 240.325 205.88 240.325 204.904C240.325 203.928 240.577 203.152 241.081 202.576C241.593 201.992 242.313 201.7 243.241 201.7C244.073 201.7 244.717 201.92 245.173 202.36C245.629 202.792 245.881 203.36 245.929 204.064H244.561C244.529 203.712 244.397 203.432 244.165 203.224C243.933 203.016 243.625 202.912 243.241 202.912C242.729 202.912 242.345 203.088 242.089 203.44C241.841 203.792 241.717 204.28 241.717 204.904C241.717 205.536 241.841 206.028 242.089 206.38C242.345 206.732 242.729 206.908 243.241 206.908C243.625 206.908 243.933 206.808 244.165 206.608C244.397 206.4 244.533 206.116 244.573 205.756H245.941C245.885 206.468 245.629 207.04 245.173 207.472C244.725 207.896 244.093 208.108 243.277 208.108ZM247.284 208V201.808H248.436L248.556 202.792H248.604C248.732 202.464 248.936 202.204 249.216 202.012C249.496 201.82 249.828 201.724 250.212 201.724H250.716V202.996H250.188C249.668 202.996 249.272 203.168 249 203.512C248.736 203.856 248.604 204.344 248.604 204.976V208H247.284ZM254.351 208.108C253.439 208.108 252.723 207.808 252.203 207.208C251.683 206.608 251.423 205.84 251.423 204.904C251.423 203.968 251.671 203.2 252.167 202.6C252.671 202 253.391 201.7 254.327 201.7C255.207 201.7 255.891 201.984 256.379 202.552C256.875 203.112 257.123 203.832 257.123 204.712V205.288H252.839C252.839 205.8 252.967 206.208 253.223 206.512C253.487 206.808 253.863 206.956 254.351 206.956C255.095 206.956 255.547 206.676 255.707 206.116H257.039C256.951 206.692 256.659 207.168 256.163 207.544C255.675 207.92 255.071 208.108 254.351 208.108ZM252.851 204.316H255.719C255.711 203.884 255.587 203.536 255.347 203.272C255.115 203 254.775 202.864 254.327 202.864C253.855 202.864 253.495 203 253.247 203.272C252.999 203.536 252.867 203.884 252.851 204.316ZM260.648 208.108C259.856 208.108 259.228 207.816 258.764 207.232C258.308 206.648 258.076 205.868 258.068 204.892C258.076 203.94 258.304 203.172 258.752 202.588C259.208 201.996 259.84 201.7 260.648 201.7C261.456 201.7 262.048 201.984 262.424 202.552H262.472V199.12H263.84V208H262.628L262.472 207.256H262.424C262.048 207.824 261.456 208.108 260.648 208.108ZM260.984 206.896C261.496 206.896 261.88 206.708 262.136 206.332C262.392 205.956 262.52 205.476 262.52 204.892C262.52 204.308 262.392 203.832 262.136 203.464C261.888 203.096 261.504 202.912 260.984 202.912C260.456 202.912 260.068 203.096 259.82 203.464C259.58 203.832 259.46 204.308 259.46 204.892C259.46 205.484 259.58 205.968 259.82 206.344C260.068 206.712 260.456 206.896 260.984 206.896ZM266.804 200.632C266.652 200.784 266.436 200.86 266.156 200.86C265.876 200.86 265.66 200.784 265.508 200.632C265.356 200.48 265.28 200.268 265.28 199.996C265.28 199.732 265.352 199.524 265.496 199.372C265.648 199.22 265.868 199.144 266.156 199.144C266.436 199.144 266.652 199.22 266.804 199.372C266.956 199.524 267.032 199.732 267.032 199.996C267.032 200.26 266.956 200.472 266.804 200.632ZM265.472 208V201.808H266.84V208H265.472ZM270.824 208.108C269.6 208.108 268.988 207.508 268.988 206.308V202.972H267.968V201.808H269.048V200.5L270.236 200.164H270.356V201.808H271.856V202.972H270.356V206.068C270.356 206.364 270.42 206.58 270.548 206.716C270.676 206.844 270.88 206.908 271.16 206.908C271.376 206.908 271.576 206.88 271.76 206.824H271.88V207.976C271.6 208.064 271.248 208.108 270.824 208.108ZM279.012 208.108C278.196 208.108 277.556 207.912 277.092 207.52C276.636 207.128 276.4 206.6 276.384 205.936H277.752C277.752 206.24 277.864 206.484 278.088 206.668C278.312 206.844 278.62 206.932 279.012 206.932C279.804 206.932 280.2 206.7 280.2 206.236C280.2 205.876 279.928 205.64 279.384 205.528L278.292 205.324C277.148 205.092 276.576 204.484 276.576 203.5C276.576 202.98 276.788 202.552 277.212 202.216C277.644 201.872 278.228 201.7 278.964 201.7C279.708 201.7 280.304 201.888 280.752 202.264C281.208 202.64 281.436 203.128 281.436 203.728H280.092C280.076 203.44 279.968 203.216 279.768 203.056C279.568 202.888 279.292 202.804 278.94 202.804C278.628 202.804 278.376 202.868 278.184 202.996C278 203.116 277.908 203.288 277.908 203.512C277.908 203.872 278.18 204.096 278.724 204.184L279.78 204.388C280.372 204.516 280.82 204.72 281.124 205C281.428 205.272 281.58 205.684 281.58 206.236C281.58 206.82 281.336 207.28 280.848 207.616C280.368 207.944 279.756 208.108 279.012 208.108ZM285.465 208.108C284.529 208.108 283.801 207.82 283.281 207.244C282.769 206.66 282.513 205.88 282.513 204.904C282.513 203.928 282.765 203.152 283.269 202.576C283.781 201.992 284.501 201.7 285.429 201.7C286.261 201.7 286.905 201.92 287.361 202.36C287.817 202.792 288.069 203.36 288.117 204.064H286.749C286.717 203.712 286.585 203.432 286.353 203.224C286.121 203.016 285.813 202.912 285.429 202.912C284.917 202.912 284.533 203.088 284.277 203.44C284.029 203.792 283.905 204.28 283.905 204.904C283.905 205.536 284.029 206.028 284.277 206.38C284.533 206.732 284.917 206.908 285.429 206.908C285.813 206.908 286.121 206.808 286.353 206.608C286.585 206.4 286.721 206.116 286.761 205.756H288.129C288.073 206.468 287.817 207.04 287.361 207.472C286.913 207.896 286.281 208.108 285.465 208.108ZM291.992 208.108C291.04 208.108 290.312 207.812 289.808 207.22C289.312 206.628 289.064 205.856 289.064 204.904C289.064 203.96 289.316 203.192 289.82 202.6C290.332 202 291.056 201.7 291.992 201.7C292.928 201.7 293.648 202 294.152 202.6C294.664 203.192 294.92 203.96 294.92 204.904C294.92 205.856 294.668 206.628 294.164 207.22C293.66 207.812 292.936 208.108 291.992 208.108ZM291.992 206.896C293.016 206.896 293.528 206.232 293.528 204.904C293.528 204.272 293.4 203.784 293.144 203.44C292.888 203.088 292.504 202.912 291.992 202.912C291.48 202.912 291.096 203.088 290.84 203.44C290.584 203.784 290.456 204.272 290.456 204.904C290.456 205.536 290.584 206.028 290.84 206.38C291.104 206.724 291.488 206.896 291.992 206.896ZM296.269 208V201.808H297.421L297.541 202.792H297.589C297.717 202.464 297.921 202.204 298.201 202.012C298.481 201.82 298.813 201.724 299.197 201.724H299.701V202.996H299.173C298.653 202.996 298.257 203.168 297.985 203.512C297.721 203.856 297.589 204.344 297.589 204.976V208H296.269ZM303.335 208.108C302.423 208.108 301.707 207.808 301.187 207.208C300.667 206.608 300.407 205.84 300.407 204.904C300.407 203.968 300.655 203.2 301.151 202.6C301.655 202 302.375 201.7 303.311 201.7C304.191 201.7 304.875 201.984 305.363 202.552C305.859 203.112 306.107 203.832 306.107 204.712V205.288H301.823C301.823 205.8 301.951 206.208 302.207 206.512C302.471 206.808 302.847 206.956 303.335 206.956C304.079 206.956 304.531 206.676 304.691 206.116H306.023C305.935 206.692 305.643 207.168 305.147 207.544C304.659 207.92 304.055 208.108 303.335 208.108ZM301.835 204.316H304.703C304.695 203.884 304.571 203.536 304.331 203.272C304.099 203 303.759 202.864 303.311 202.864C302.839 202.864 302.479 203 302.231 203.272C301.983 203.536 301.851 203.884 301.835 204.316ZM312.284 200.632C312.132 200.784 311.916 200.86 311.636 200.86C311.356 200.86 311.14 200.784 310.988 200.632C310.836 200.48 310.76 200.268 310.76 199.996C310.76 199.732 310.832 199.524 310.976 199.372C311.128 199.22 311.348 199.144 311.636 199.144C311.916 199.144 312.132 199.22 312.284 199.372C312.436 199.524 312.512 199.732 312.512 199.996C312.512 200.26 312.436 200.472 312.284 200.632ZM310.952 208V201.808H312.32V208H310.952ZM316.172 208.108C315.356 208.108 314.716 207.912 314.252 207.52C313.796 207.128 313.56 206.6 313.544 205.936H314.912C314.912 206.24 315.024 206.484 315.248 206.668C315.472 206.844 315.78 206.932 316.172 206.932C316.964 206.932 317.36 206.7 317.36 206.236C317.36 205.876 317.088 205.64 316.544 205.528L315.452 205.324C314.308 205.092 313.736 204.484 313.736 203.5C313.736 202.98 313.948 202.552 314.372 202.216C314.804 201.872 315.388 201.7 316.124 201.7C316.868 201.7 317.464 201.888 317.912 202.264C318.368 202.64 318.596 203.128 318.596 203.728H317.252C317.236 203.44 317.128 203.216 316.928 203.056C316.728 202.888 316.452 202.804 316.1 202.804C315.788 202.804 315.536 202.868 315.344 202.996C315.16 203.116 315.068 203.288 315.068 203.512C315.068 203.872 315.34 204.096 315.884 204.184L316.94 204.388C317.532 204.516 317.98 204.72 318.284 205C318.588 205.272 318.74 205.684 318.74 206.236C318.74 206.82 318.496 207.28 318.008 207.616C317.528 207.944 316.916 208.108 316.172 208.108ZM327.101 208.108C325.869 208.108 324.921 207.716 324.257 206.932C323.593 206.148 323.261 205.112 323.261 203.824C323.261 202.52 323.593 201.472 324.257 200.68C324.929 199.888 325.877 199.492 327.101 199.492C328.117 199.492 328.937 199.764 329.561 200.308C330.193 200.844 330.553 201.54 330.641 202.396H329.201C329.137 201.916 328.929 201.528 328.577 201.232C328.225 200.936 327.733 200.788 327.101 200.788C326.285 200.788 325.681 201.068 325.289 201.628C324.897 202.18 324.701 202.912 324.701 203.824C324.701 204.728 324.897 205.456 325.289 206.008C325.681 206.552 326.285 206.824 327.101 206.824C327.789 206.824 328.321 206.636 328.697 206.26C329.081 205.876 329.293 205.384 329.333 204.784H327.341V203.536H330.749V204.34C330.749 205.484 330.417 206.4 329.753 207.088C329.097 207.768 328.213 208.108 327.101 208.108ZM334.707 208.108C333.755 208.108 333.027 207.812 332.523 207.22C332.027 206.628 331.779 205.856 331.779 204.904C331.779 203.96 332.031 203.192 332.535 202.6C333.047 202 333.771 201.7 334.707 201.7C335.643 201.7 336.363 202 336.867 202.6C337.379 203.192 337.635 203.96 337.635 204.904C337.635 205.856 337.383 206.628 336.879 207.22C336.375 207.812 335.651 208.108 334.707 208.108ZM334.707 206.896C335.731 206.896 336.243 206.232 336.243 204.904C336.243 204.272 336.115 203.784 335.859 203.44C335.603 203.088 335.219 202.912 334.707 202.912C334.195 202.912 333.811 203.088 333.555 203.44C333.299 203.784 333.171 204.272 333.171 204.904C333.171 205.536 333.299 206.028 333.555 206.38C333.819 206.724 334.203 206.896 334.707 206.896ZM341.503 208.108C340.551 208.108 339.823 207.812 339.319 207.22C338.823 206.628 338.575 205.856 338.575 204.904C338.575 203.96 338.827 203.192 339.331 202.6C339.843 202 340.567 201.7 341.503 201.7C342.439 201.7 343.159 202 343.663 202.6C344.175 203.192 344.431 203.96 344.431 204.904C344.431 205.856 344.179 206.628 343.675 207.22C343.171 207.812 342.447 208.108 341.503 208.108ZM341.503 206.896C342.527 206.896 343.039 206.232 343.039 204.904C343.039 204.272 342.911 203.784 342.655 203.44C342.399 203.088 342.015 202.912 341.503 202.912C340.991 202.912 340.607 203.088 340.351 203.44C340.095 203.784 339.967 204.272 339.967 204.904C339.967 205.536 340.095 206.028 340.351 206.38C340.615 206.724 340.999 206.896 341.503 206.896ZM347.952 208.108C347.16 208.108 346.532 207.816 346.068 207.232C345.612 206.648 345.38 205.868 345.372 204.892C345.38 203.94 345.608 203.172 346.056 202.588C346.512 201.996 347.144 201.7 347.952 201.7C348.76 201.7 349.352 201.984 349.728 202.552H349.776V199.12H351.144V208H349.932L349.776 207.256H349.728C349.352 207.824 348.76 208.108 347.952 208.108ZM348.288 206.896C348.8 206.896 349.184 206.708 349.44 206.332C349.696 205.956 349.824 205.476 349.824 204.892C349.824 204.308 349.696 203.832 349.44 203.464C349.192 203.096 348.808 202.912 348.288 202.912C347.76 202.912 347.372 203.096 347.124 203.464C346.884 203.832 346.764 204.308 346.764 204.892C346.764 205.484 346.884 205.968 347.124 206.344C347.372 206.712 347.76 206.896 348.288 206.896Z" fill="#676875"/>
<rect opacity="0.1" x="231" y="226" width="100" height="8" rx="4" fill="#1D2145"/>
<rect opacity="0.05" x="256" y="240" width="50" height="8" rx="4" fill="#1D2145"/>
<g filter="url(#filter1_dd)">
<rect x="81" y="191" width="120" height="120" rx="20" fill="white"/>
</g>
<circle cx="141" cy="235" r="24" fill="#DD97DA"/>
<path d="M142.064 228L147.224 241.8V242H145.364L144.044 238.34H137.924L136.604 242H134.784V241.8L139.924 228H142.064ZM138.484 236.78H143.484L141.024 229.94H140.944L138.484 236.78Z" fill="white"/>
<rect opacity="0.05" x="111" y="269" width="60" height="8" rx="4" fill="#1D2145"/>
<rect opacity="0.1" x="126" y="283" width="30" height="8" rx="4" fill="#1D2145"/>
<defs>
<filter id="filter0_dd" x="93" y="28" width="376" height="296" filterUnits="userSpaceOnUse" color-interpolation-filters="sRGB">
<feFlood flood-opacity="0" result="BackgroundImageFix"/>
<feColorMatrix in="SourceAlpha" type="matrix" values="0 0 0 0 0 0 0 0 0 0 0 0 0 0 0 0 0 0 127 0"/>
<feMorphology radius="4" operator="erode" in="SourceAlpha" result="effect1_dropShadow"/>
<feOffset dy="7"/>
<feGaussianBlur stdDeviation="16"/>
<feColorMatrix type="matrix" values="0 0 0 0 0.0941176 0 0 0 0 0.152941 0 0 0 0 0.294118 0 0 0 0.12 0"/>
<feBlend mode="normal" in2="BackgroundImageFix" result="effect1_dropShadow"/>
<feColorMatrix in="SourceAlpha" type="matrix" values="0 0 0 0 0 0 0 0 0 0 0 0 0 0 0 0 0 0 127 0"/>
<feMorphology radius="6" operator="erode" in="SourceAlpha" result="effect2_dropShadow"/>
<feOffset dy="4"/>
<feGaussianBlur stdDeviation="5"/>
<feColorMatrix type="matrix" values="0 0 0 0 0.0941176 0 0 0 0 0.152941 0 0 0 0 0.294118 0 0 0 0.1 0"/>
<feBlend mode="normal" in2="effect1_dropShadow" result="effect2_dropShadow"/>
<feBlend mode="normal" in="SourceGraphic" in2="effect2_dropShadow" result="shape"/>
</filter>
<filter id="filter1_dd" x="53" y="170" width="176" height="176" filterUnits="userSpaceOnUse" color-interpolation-filters="sRGB">
<feFlood flood-opacity="0" result="BackgroundImageFix"/>
<feColorMatrix in="SourceAlpha" type="matrix" values="0 0 0 0 0 0 0 0 0 0 0 0 0 0 0 0 0 0 127 0"/>
<feMorphology radius="4" operator="erode" in="SourceAlpha" result="effect1_dropShadow"/>
<feOffset dy="7"/>
<feGaussianBlur stdDeviation="16"/>
<feColorMatrix type="matrix" values="0 0 0 0 0.0941176 0 0 0 0 0.152941 0 0 0 0 0.294118 0 0 0 0.12 0"/>
<feBlend mode="normal" in2="BackgroundImageFix" result="effect1_dropShadow"/>
<feColorMatrix in="SourceAlpha" type="matrix" values="0 0 0 0 0 0 0 0 0 0 0 0 0 0 0 0 0 0 127 0"/>
<feMorphology radius="6" operator="erode" in="SourceAlpha" result="effect2_dropShadow"/>
<feOffset dy="4"/>
<feGaussianBlur stdDeviation="5"/>
<feColorMatrix type="matrix" values="0 0 0 0 0.0941176 0 0 0 0 0.152941 0 0 0 0 0.294118 0 0 0 0.1 0"/>
<feBlend mode="normal" in2="effect1_dropShadow" result="effect2_dropShadow"/>
<feBlend mode="normal" in="SourceGraphic" in2="effect2_dropShadow" result="shape"/>
</filter>
<radialGradient id="paint0_radial" cx="0" cy="0" r="1" gradientUnits="userSpaceOnUse" gradientTransform="translate(130 178) rotate(90) scale(120)">
<stop stop-color="white"/>
<stop offset="0.265625" stop-color="white" stop-opacity="0.5"/>
<stop offset="1" stop-color="white" stop-opacity="0"/>
</radialGradient>
</defs>
</svg>
