<?xml version="1.0" standalone="no"?>
<!DOCTYPE svg PUBLIC "-//W3C//DTD SVG 20010904//EN"
 "http://www.w3.org/TR/2001/REC-SVG-20010904/DTD/svg10.dtd">
<svg version="1.0" xmlns="http://www.w3.org/2000/svg"
 width="192.000000pt" height="240.000000pt" viewBox="0 0 192.000000 240.000000"
 preserveAspectRatio="xMidYMid meet">
<metadata>
Created by potrace 1.10, written by Peter Selinger 2001-2011
</metadata>
<g transform="translate(0.000000,240.000000) scale(0.100000,-0.100000)"
fill="#000000" stroke="none">
<path d="M440 2185 c-10 -12 -16 -13 -27 -4 -11 9 -19 7 -38 -11 -30 -28 -31
-38 -7 -47 21 -7 72 -54 72 -66 0 -4 -7 -15 -15 -23 -11 -12 -14 -29 -10 -67
5 -54 30 -84 79 -97 27 -7 33 -30 7 -30 -24 0 -35 -16 -37 -51 -1 -15 -11 -36
-23 -48 -12 -12 -19 -26 -16 -31 3 -5 -4 -11 -15 -15 -12 -4 -28 -24 -36 -45
-10 -25 -24 -40 -40 -44 -13 -4 -24 -13 -24 -21 0 -23 -41 -55 -72 -55 -15 0
-28 5 -28 10 0 18 -18 10 -56 -24 -39 -36 -39 -56 3 -56 20 0 24 -4 18 -17
-13 -33 -10 -48 11 -51 15 -2 21 -11 22 -30 1 -15 3 -40 5 -56 1 -16 -4 -31
-10 -33 -7 -3 -13 2 -13 11 0 20 -14 21 -30 1 -8 -9 -17 -12 -24 -6 -17 13
-76 10 -76 -5 0 -8 -6 -11 -15 -8 -25 10 -17 -25 11 -51 37 -34 61 -39 91 -20
20 14 27 15 34 4 5 -9 -7 -20 -42 -38 -43 -22 -51 -24 -59 -11 -7 11 -10 12
-10 2 0 -18 101 -131 117 -132 7 0 31 8 53 17 40 18 64 53 41 61 -9 3 -7 10 5
23 19 21 54 26 54 8 0 -6 -7 -9 -15 -6 -8 4 -17 2 -20 -3 -4 -6 -1 -10 5 -10
8 0 10 -9 6 -25 -4 -14 -1 -34 6 -45 10 -15 10 -27 1 -50 -9 -24 -8 -50 4
-118 8 -48 16 -109 19 -135 2 -26 18 -78 34 -114 17 -37 39 -100 49 -141 11
-40 31 -91 45 -113 33 -49 66 -132 66 -165 0 -32 21 -72 54 -103 22 -20 30
-23 49 -14 14 6 28 25 33 44 8 29 15 34 39 34 17 1 28 5 26 10 -2 6 -6 16 -9
23 -5 15 35 62 52 59 7 -1 10 16 8 51 -3 34 1 60 10 75 23 35 27 67 20 149 -9
85 4 128 37 128 10 0 26 9 36 20 10 11 26 20 37 20 11 0 25 13 34 33 10 20 34
42 65 60 34 19 59 43 80 78 21 33 47 59 79 77 60 34 102 83 89 103 -14 22 -11
27 24 45 17 9 36 22 40 28 6 8 10 8 13 0 4 -9 64 -8 64 1 0 2 -5 16 -12 32 -6
15 -10 34 -9 41 1 6 -2 12 -7 12 -9 0 -13 18 -13 61 0 22 -4 26 -19 22 -22 -6
-43 28 -22 35 7 2 12 9 12 16 0 9 9 12 25 8 37 -7 22 25 -16 33 -33 8 -33 6
-17 40 11 26 28 34 28 14 0 -8 6 -7 17 2 15 12 16 12 10 -4 -5 -15 -2 -17 21
-15 18 2 26 -1 24 -10 -1 -7 3 -22 9 -33 10 -19 18 -20 95 -16 46 2 84 0 84
-5 0 -5 5 -6 10 -3 17 11 -7 32 -43 39 -18 3 -46 2 -63 -3 -24 -7 -36 -5 -55
11 -13 11 -18 17 -11 13 16 -8 15 5 -2 24 -13 14 -8 16 47 15 74 -1 101 16 92
56 -4 19 0 32 16 46 11 10 24 19 28 19 3 0 6 2 5 5 -1 3 17 21 39 40 23 19 37
28 32 20 -8 -13 -6 -13 8 -2 9 8 25 11 38 7 14 -5 19 -4 15 4 -4 6 -3 11 3 11
5 0 18 -13 28 -30 9 -16 20 -30 24 -30 4 0 9 -7 13 -15 3 -8 1 -14 -4 -12 -4
1 -29 -15 -54 -36 -34 -28 -46 -45 -46 -66 0 -15 -8 -52 -17 -82 -9 -30 -16
-57 -15 -61 1 -5 -1 -7 -6 -6 -14 4 -52 -23 -52 -37 0 -7 -5 -17 -12 -21 -7
-4 -8 -3 -4 5 4 6 0 14 -8 17 -21 8 -20 19 5 42 l20 20 -25 0 c-15 0 -26 -4
-26 -9 0 -12 -37 -49 -49 -49 -17 0 -20 -43 -4 -66 21 -32 33 -30 33 5 0 33
16 49 32 33 9 -9 17 -49 21 -105 1 -10 7 -15 15 -12 7 3 18 5 24 5 6 0 8 12 4
30 -3 17 -3 51 1 76 5 38 9 44 26 42 17 -3 23 7 36 53 9 31 22 63 29 72 11 12
11 19 0 36 -7 11 -10 22 -8 23 3 2 26 20 52 41 31 24 52 35 63 30 14 -5 16 -2
11 15 -4 12 -2 30 3 41 9 16 7 21 -9 26 -11 3 -29 3 -40 0 -11 -3 -20 -2 -20
3 0 6 5 12 12 14 6 2 8 10 4 17 -5 7 -14 10 -22 7 -8 -3 -14 -1 -14 4 0 6 6
10 13 10 8 0 7 3 -3 10 -10 6 -20 4 -33 -8 -11 -10 -31 -15 -48 -14 -24 3 -38
-7 -89 -59 -33 -35 -60 -60 -60 -55 0 5 -6 3 -14 -3 -10 -8 -16 -9 -21 -1 -3
6 -11 8 -16 4 -13 -7 8 -34 27 -34 8 0 11 -6 8 -15 -4 -8 -1 -15 6 -15 6 0 9
-4 5 -9 -3 -5 -19 -8 -35 -6 -16 2 -32 -1 -36 -6 -4 -6 -11 -6 -20 2 -11 9
-21 9 -37 1 -12 -5 -35 -9 -52 -9 -29 2 -30 3 -28 50 2 54 -16 63 -43 22 -13
-20 -14 -31 -6 -49 18 -41 0 -55 -74 -53 -36 0 -67 5 -70 9 -3 4 -13 8 -22 8
-10 0 -29 8 -42 18 -15 10 -45 17 -77 18 -37 1 -71 11 -125 38 -108 54 -109
55 -95 98 7 20 18 42 25 50 9 12 6 19 -16 40 -15 14 -46 34 -70 44 -39 17 -43
21 -38 46 3 15 1 30 -4 33 -6 3 -10 14 -10 23 0 13 2 13 14 -3 14 -19 15 -19
34 -2 21 19 19 57 -2 57 -7 0 -13 13 -13 30 0 21 5 30 16 30 9 0 23 10 31 23
20 31 41 70 38 71 -2 1 -15 12 -30 25 -22 20 -30 22 -42 12 -8 -7 -20 -10 -25
-6 -6 3 -22 -2 -36 -11 -25 -16 -27 -16 -46 4 -73 80 -179 123 -209 87z m131
-59 c17 -14 35 -26 40 -26 6 0 8 -4 4 -9 -3 -5 4 -12 15 -16 11 -3 20 -11 20
-16 0 -5 9 -9 20 -9 11 0 20 5 20 11 0 5 5 7 10 4 6 -3 10 -3 10 2 0 13 78 15
86 2 5 -8 3 -9 -6 -4 -10 6 -12 4 -7 -7 3 -9 -1 -24 -9 -35 -9 -10 -12 -11 -8
-3 4 8 -7 2 -24 -14 -33 -31 -42 -72 -21 -93 8 -8 5 -13 -10 -18 -12 -3 -21
-9 -22 -13 0 -4 -2 -15 -4 -24 -2 -10 1 -18 6 -18 5 0 7 -11 3 -24 -7 -28 37
-82 58 -70 7 4 10 4 6 -1 -4 -4 7 -15 25 -24 22 -11 31 -22 29 -36 -2 -11 -4
-26 -4 -32 -1 -7 -5 -13 -9 -13 -3 0 -9 -11 -11 -25 -5 -24 5 -37 67 -85 17
-13 18 -13 11 0 -5 9 -2 8 7 -2 23 -29 108 -60 170 -63 32 -1 64 -8 75 -17 25
-21 83 -36 135 -34 40 1 47 -1 52 -22 3 -12 10 -20 14 -17 12 7 8 -20 -6 -36
-14 -19 -9 -46 15 -67 11 -9 24 -35 30 -57 5 -22 13 -48 17 -59 7 -16 6 -17
-14 -6 -19 10 -26 9 -45 -9 -12 -12 -26 -21 -30 -21 -4 0 -14 -7 -22 -15 -9
-8 -13 -15 -9 -15 3 0 1 -10 -6 -21 -8 -16 -8 -20 1 -14 19 12 -4 -27 -32 -51
-12 -12 -37 -29 -55 -38 -36 -18 -97 -102 -87 -119 4 -7 4 -9 -1 -5 -4 4 -20
0 -34 -10 -14 -10 -37 -23 -51 -30 -14 -7 -31 -26 -39 -43 -7 -17 -20 -29 -31
-29 -11 0 -24 -8 -29 -17 -6 -10 -11 -14 -11 -9 0 6 -7 1 -16 -10 -8 -10 -12
-12 -8 -4 8 16 -30 -12 -53 -39 -15 -17 -18 -157 -4 -166 14 -8 3 -56 -17 -79
-13 -15 -13 -17 -2 -11 13 7 13 6 -1 -11 -8 -10 -14 -30 -13 -44 2 -30 -25
-92 -37 -84 -8 5 -14 -18 -10 -39 1 -5 -4 -5 -10 -1 -9 5 -10 2 -6 -10 4 -10
3 -15 -3 -11 -11 7 -49 -33 -50 -51 0 -6 -8 -18 -17 -25 -14 -12 -16 -12 -9 0
6 9 5 12 -5 9 -19 -7 -49 40 -49 78 0 17 -3 34 -7 38 -5 4 -8 11 -9 14 0 4 -6
20 -12 35 -15 36 -15 40 0 31 7 -4 1 6 -13 22 -41 46 -62 83 -64 116 -2 17 -9
34 -16 39 -10 6 -11 9 -1 9 6 0 12 5 12 11 0 5 -5 7 -12 3 -6 -4 -8 -3 -5 3 9
15 -17 75 -28 66 -4 -5 -5 -2 -1 5 4 7 -2 29 -15 50 -15 25 -21 51 -20 79 1
24 -3 52 -10 64 -6 12 -11 42 -11 67 1 24 -3 54 -9 64 -9 16 -8 19 3 12 10 -6
11 -5 2 7 -6 8 -10 23 -7 34 10 48 11 65 2 71 -6 4 -6 11 1 19 8 10 8 15 0 20
-6 4 -7 12 -2 18 12 17 9 31 -11 51 -15 15 -20 16 -34 4 -14 -11 -16 -11 -9 2
7 13 6 13 -6 0 -8 -8 -20 -21 -28 -29 -13 -12 -13 -13 0 -6 13 8 13 6 2 -7 -7
-9 -11 -21 -10 -28 2 -7 -12 -19 -29 -26 -32 -13 -34 -13 -68 20 -33 32 -34
35 -15 41 11 3 33 20 50 37 28 28 30 32 15 48 -14 16 -13 20 17 49 31 30 32
33 19 64 -7 17 -13 42 -12 53 0 12 -6 27 -14 34 -8 7 -15 20 -15 29 0 9 -5 22
-11 28 -7 7 -9 19 -5 28 4 13 13 15 35 10 17 -3 40 -1 53 6 26 13 128 114 128
126 0 5 14 23 31 41 17 18 27 37 23 44 -4 7 -3 8 4 4 13 -8 31 23 34 58 2 24
6 27 24 25 3 0 12 8 19 18 11 15 11 22 -2 43 -8 14 -23 27 -33 27 -10 1 -27
10 -38 21 -21 21 -34 79 -20 88 5 3 5 10 2 16 -4 6 -2 8 4 4 21 -12 25 35 5
63 -53 75 38 104 118 37z m-144 9 c0 -10 -6 -14 -14 -10 -8 3 -17 5 -19 5 -3
0 -2 5 1 10 10 16 32 12 32 -5z m-278 -891 c2 -2 9 0 15 6 7 5 18 5 25 1 8 -6
2 -10 -19 -14 -17 -4 -29 -10 -26 -15 6 -9 -41 -8 -51 2 -20 19 -10 34 21 29
17 -3 33 -7 35 -9z"/>
<path d="M660 2156 c0 -2 8 -10 18 -17 15 -13 16 -12 3 4 -13 16 -21 21 -21
13z"/>
<path d="M1825 1471 c-3 -5 -2 -12 3 -15 5 -3 9 1 9 9 0 17 -3 19 -12 6z"/>
</g>
</svg>
